General
Unique ID                                : 183495270511031292662603547254721037218 (0x8A0BE7532F8A6155DCFE597BACE743A2)
Complete name                            : Ado - Kaze to Watashi no Monogatari (Lyric Video) [WEB-DL 1080p AAC 2.0 x264-SEKAI].mkv
Format                                   : Matroska
Format version                           : Version 4
File size                                : 444 MiB
Duration                                 : 5 min 52 s
Overall bit rate                         : 10.6 Mb/s
Frame rate                               : 24.000 FPS
Title                                    : Ado - Kaze to Watashi no Monogatari (Lyric Video) [WEB-DL 1080p AAC 2.0 x264-SEKAI]
Encoded date                             : 2026-05-01 12:56:39 UTC
Writing application                      : mkvmerge 98.0 ('Chonks') 64-bit
Writing library                          : libebml v1.4.5 + libmatroska v1.7.1
Website                                  : https://sekai-archivist.blogspot.com/

Video
ID                                       : 1
Format                                   : AVC
Format/Info                              : Advanced Video Codec
Format profile                           : High@L4
Format settings                          : CABAC / 4 Ref Frames
Format settings, CABAC                   : Yes
Format settings, Reference frames        : 4 frames
Format settings, Slice count             : 8 slices per frame
Codec ID                                 : V_MPEG4/ISO/AVC
Duration                                 : 5 min 52 s
Bit rate                                 : 10.3 Mb/s
Width                                    : 1 920 pixels
Height                                   : 1 080 pixels
Display aspect ratio                     : 16:9
Frame rate mode                          : Constant
Frame rate                               : 24.000 FPS
Color space                              : YUV
Chroma subsampling                       : 4:2:0 (Type 2)
Bit depth                                : 8 bits
Scan type                                : Progressive
Bits/(Pixel*Frame)                       : 0.207
Stream size                              : 432 MiB (97%)
Language                                 : Japanese
Default                                  : Yes
Forced                                   : No
Color range                              : Limited
Color primaries                          : BT.709
Transfer characteristics                 : BT.709
Matrix coefficients                      : BT.709

Audio
ID                                       : 2
Format                                   : AAC LC
Format/Info                              : Advanced Audio Codec Low Complexity
Codec ID                                 : A_AAC-2
Duration                                 : 5 min 52 s
Bit rate                                 : 278 kb/s
Channel(s)                               : 2 channels
Channel layout                           : L R
Sampling rate                            : 48.0 kHz
Frame rate                               : 46.875 FPS (1024 SPF)
Compression mode                         : Lossy
Stream size                              : 11.7 MiB (3%)
Language                                 : Japanese
Default                                  : Yes
Forced                                   : No


